<svg xmlns="http://www.w3.org/2000/svg" viewBox="0 0 59 59"><title>edit</title><g id="Layer_2" data-name="Layer 2"><g id="Layer_1-2" data-name="Layer 1"><g id="edit"><path d="M2.5,59a2.54,2.54,0,0,1-1.77-.73,2.51,2.51,0,0,1-.65-2.39l3.1-12.12a2.54,2.54,0,0,1,.65-1.15L45.71.73a2.52,2.52,0,0,1,3.54,0l9,9a2.51,2.51,0,0,1,0,3.54L16.39,55.17a2.54,2.54,0,0,1-1.15.65L3.12,58.92A2.64,2.64,0,0,1,2.5,59Zm12.12-5.6h0ZM7.85,45.66,6,53l7.37-1.88L53,11.52,47.48,6Z"/><path d="M48.76,21.76A2.53,2.53,0,0,1,47,21l-9-9a2.5,2.5,0,1,1,3.54-3.54l9,9a2.5,2.5,0,0,1-1.77,4.27Z"/><path d="M46.89,59H26.62a2.5,2.5,0,0,1,0-5H46.89a2.5,2.5,0,0,1,0,5Z"/></g></g></g></svg>