<svg xmlns="http://www.w3.org/2000/svg" viewBox="0 0 59.09 38.56"><title>visibility</title><g id="Layer_2" data-name="Layer 2"><g id="Layer_1-2" data-name="Layer 1"><g id="visibility"><path d="M29.52,38.56c-12.32,0-22.67-9.24-27.74-14.75a6.66,6.66,0,0,1,0-9.06h0C6.85,9.24,17.2,0,29.52,0S52.28,9.32,57.37,14.88a6.49,6.49,0,0,1,0,8.8C52.28,29.24,41.91,38.56,29.52,38.56ZM5.46,18.14a1.67,1.67,0,0,0,0,2.28C9.1,24.37,18.72,33.56,29.52,33.56S50,24.29,53.68,20.3a1.52,1.52,0,0,0,0-2.05C50,14.27,40.38,5,29.52,5S9.1,14.19,5.46,18.14Z"/><path d="M29.52,28.07a8.79,8.79,0,1,1,8.79-8.79A8.8,8.8,0,0,1,29.52,28.07Zm0-12.58a3.79,3.79,0,1,0,3.79,3.79A3.8,3.8,0,0,0,29.52,15.49Z"/></g></g></g></svg>