<svg xmlns="http://www.w3.org/2000/svg" viewBox="0 0 59 59"><title>help (2)</title><g id="Layer_2" data-name="Layer 2"><g id="Layer_1-2" data-name="Layer 1"><g id="help"><path d="M29.5,59A29.5,29.5,0,1,1,59,29.5,29.53,29.53,0,0,1,29.5,59Zm0-54A24.5,24.5,0,1,0,54,29.5,24.53,24.53,0,0,0,29.5,5Z"/><path d="M28.75,37.62a2.5,2.5,0,0,1-2.5-2.5,8.73,8.73,0,0,1,6.16-8.37,3.74,3.74,0,0,0,2.65-3.6,5.56,5.56,0,0,0-11.12,0,2.5,2.5,0,0,1-5,0,10.56,10.56,0,0,1,21.12,0,8.73,8.73,0,0,1-6.16,8.37,3.75,3.75,0,0,0-2.65,3.6A2.5,2.5,0,0,1,28.75,37.62Z"/><circle cx="28.76" cy="42.91" r="3"/></g></g></g></svg>